<?xml version="1.0" standalone="no"?>
<svg xmlns:xlink="http://www.w3.org/1999/xlink" id="wave" style="transform:rotate(0deg); transition: 0.3s" viewBox="0 0 1440 490" version="1.1" xmlns="http://www.w3.org/2000/svg"><defs><linearGradient id="sw-gradient-0" x1="0" x2="0" y1="1" y2="0"><stop stop-color="rgba(102, 21, 21, 1)" offset="0%"/><stop stop-color="rgba(102, 21, 21, 1)" offset="100%"/></linearGradient></defs><path style="transform:translate(0, 0px); opacity:1" fill="url(#sw-gradient-0)" d="M0,49L80,81.7C160,114,320,180,480,220.5C640,261,800,278,960,261.3C1120,245,1280,196,1440,147C1600,98,1760,49,1920,73.5C2080,98,2240,196,2400,196C2560,196,2720,98,2880,122.5C3040,147,3200,294,3360,343C3520,392,3680,343,3840,277.7C4000,212,4160,131,4320,81.7C4480,33,4640,16,4800,16.3C4960,16,5120,33,5280,57.2C5440,82,5600,114,5760,130.7C5920,147,6080,147,6240,179.7C6400,212,6560,278,6720,310.3C6880,343,7040,343,7200,343C7360,343,7520,343,7680,302.2C7840,261,8000,180,8160,122.5C8320,65,8480,33,8640,73.5C8800,114,8960,229,9120,294C9280,359,9440,376,9600,343C9760,310,9920,229,10080,163.3C10240,98,10400,49,10560,32.7C10720,16,10880,33,11040,40.8C11200,49,11360,49,11440,49L11520,49L11520,490L11440,490C11360,490,11200,490,11040,490C10880,490,10720,490,10560,490C10400,490,10240,490,10080,490C9920,490,9760,490,9600,490C9440,490,9280,490,9120,490C8960,490,8800,490,8640,490C8480,490,8320,490,8160,490C8000,490,7840,490,7680,490C7520,490,7360,490,7200,490C7040,490,6880,490,6720,490C6560,490,6400,490,6240,490C6080,490,5920,490,5760,490C5600,490,5440,490,5280,490C5120,490,4960,490,4800,490C4640,490,4480,490,4320,490C4160,490,4000,490,3840,490C3680,490,3520,490,3360,490C3200,490,3040,490,2880,490C2720,490,2560,490,2400,490C2240,490,2080,490,1920,490C1760,490,1600,490,1440,490C1280,490,1120,490,960,490C800,490,640,490,480,490C320,490,160,490,80,490L0,490Z"/></svg>